HIERARCHY
ROOT Hips
{
	OFFSET 0.00000 0.00000 0.00000
	CHANNELS 6 Xposition Yposition Zposition Zrotation Yrotation Xrotation 
	JOINT LHipJoint
	{
		OFFSET 0 0 0
		CHANNELS 3 Zrotation Yrotation Xrotation
		JOINT LeftHip
		{
			OFFSET 3.13874 -1.57224 1.49786
			CHANNELS 3 Zrotation Yrotation Xrotation
			JOINT LeftKnee
			{
				OFFSET 2.10955 -5.79594 0.00000
				CHANNELS 3 Zrotation Yrotation Xrotation
				JOINT LeftAnkle
				{
					OFFSET 2.41843 -6.64458 0.00000
					CHANNELS 3 Zrotation Yrotation Xrotation
					JOINT LeftToe
					{
						OFFSET 0.04713 -0.12948 1.66229
						CHANNELS 3 Zrotation Yrotation Xrotation
						End Site
						{
							OFFSET 0.00000 -0.00000 0.85167
						}
					}
				}
			}
		}
	}
	JOINT RHipJoint
	{
		OFFSET 0 0 0
		CHANNELS 3 Zrotation Yrotation Xrotation
		JOINT RightHip
		{
			OFFSET -3.13988 -1.57224 1.49786
			CHANNELS 3 Zrotation Yrotation Xrotation
			JOINT RightKnee
			{
				OFFSET -2.15006 -5.90725 0.00000
				CHANNELS 3 Zrotation Yrotation Xrotation
				JOINT RightAnkle
				{
					OFFSET -2.34496 -6.44273 0.00000
					CHANNELS 3 Zrotation Yrotation Xrotation
					JOINT RightToe
					{
						OFFSET -0.08699 -0.23900 1.55223
						CHANNELS 3 Zrotation Yrotation Xrotation
						End Site
						{
							OFFSET -0.00000 -0.00000 0.80281
						}
					}
				}
			}
		}
	}
	JOINT lowerback
	{
		OFFSET 0 0 0
		CHANNELS 3 Zrotation Yrotation Xrotation
		JOINT Chest
		{
			OFFSET 0.01292 1.96517 -0.16495
			CHANNELS 3 Zrotation Yrotation Xrotation
			JOINT Chest2
			{
				OFFSET 0.02122 1.88666 0.19706
				CHANNELS 3 Zrotation Yrotation Xrotation
				JOINT lowerneck
				{
					OFFSET 0 0 0
					CHANNELS 3 Zrotation Yrotation Xrotation
					JOINT Neck
					{
						OFFSET -0.01683 1.81591 0.07903
						CHANNELS 3 Zrotation Yrotation Xrotation
						JOINT Head
						{
							OFFSET 0.00815 1.74013 -0.47700
							CHANNELS 3 Zrotation Yrotation Xrotation
							End Site
							{
								OFFSET -0.00204 1.83225 -0.16933
							}
						}
					}
				}
				JOINT LeftCollar
				{
					OFFSET 0 0 0
					CHANNELS 3 Zrotation Yrotation Xrotation
					JOINT LeftShoulder
					{
						OFFSET 3.38482 1.41533 0.19802
CHANNELS 3 Zrotation Xrotation Yrotation
						JOINT LeftElbow
						{
OFFSET 0 -4.327120 0.000000
CHANNELS 3 Zrotation Xrotation Yrotation
							JOINT LeftWrist
							{
OFFSET 0 -3.285870 -0.000000
CHANNELS 3 Zrotation Xrotation Yrotation
								JOINT lhand
								{
									OFFSET 0 0 0
CHANNELS 3 Zrotation Xrotation Yrotation
									JOINT LFingers
									{
OFFSET 0 -0.433160 -0.000000
CHANNELS 3 Zrotation Xrotation Yrotation
										End Site
										{
OFFSET 0 -0.349220 -0.000000
										}
									}
								}
								JOINT LThumb
								{
OFFSET 0 0.000000 0.000000
CHANNELS 3 Zrotation Xrotation Yrotation
									End Site
									{
OFFSET 0 -0.354560 0.354560
									}
								}
							}
						}
					}
				}
				JOINT RightCollar
				{
					OFFSET 0 0 0
					CHANNELS 3 Zrotation Yrotation Xrotation
					JOINT RightShoulder
					{
						OFFSET -3.09725 1.62858 -0.14144
CHANNELS 3 Zrotation Xrotation Yrotation
						JOINT RightElbow
						{
OFFSET 0 -4.291040 0.000000
CHANNELS 3 Zrotation Xrotation Yrotation
							JOINT RightWrist
							{
OFFSET 0 -3.227200 -0.000000
CHANNELS 3 Zrotation Xrotation Yrotation
								JOINT rhand
								{
									OFFSET 0 0 0
CHANNELS 3 Zrotation Xrotation Yrotation
									JOINT RFingers
									{
OFFSET 0 -0.543620 -0.000000
CHANNELS 3 Zrotation Xrotation Yrotation
										End Site
										{
OFFSET 0 -0.438280 -0.000000
										}
									}
								}
								JOINT RThumb
								{
OFFSET 0 0.000000 0.000000
CHANNELS 3 Zrotation Xrotation Yrotation
									End Site
									{
OFFSET 0 -0.444970 0.444970
									}
								}
							}
						}
					}
				}
			}
		}
	}
}
MOTION
Frames: 7
Frame Time: 0.008333333333333333
-33.637800 15.943800 -1.867200 -165.696000 78.170100 -146.976000 0.000000 0.000000 0.000000 -40.841400 -41.694800 31.103700 0.167100 -2.633800 -7.260800 12.763600 2.681900 -69.946600 5.601700 -14.030900 -43.361500 0.000000 0.000000 0.000000 20.169500 19.609200 -24.818300 -0.433800 -4.226600 11.715200 0.362100 -16.980400 -20.356000 -0.273400 3.363300 -9.292000 -3.930800 -0.325100 8.191900 4.739500 -0.107900 -9.345700 7.576300 0.889100 -15.049200 5.248500 5.600900 -23.020700 -3.191800 9.143900 37.918300 -0.217700 4.356500 18.633200 0.000000 -0.000000 0.000000 0.672000 9.976300 -28.006800 21.814100 -32.766200 6.484900 29.559000 23.247500 -31.087300 0.000000 0.000000 0.000000 -7.125000 0.000000 0.000000 -2.515700 64.690800 1.199100 0.000000 -0.000000 0.000000 -23.505000 20.410200 35.529100 -17.520800 -27.539300 -4.325400 -22.879500 -9.967200 22.826600 0.000000 0.000000 0.000000 7.125000 0.000000 -0.000000 6.536800 54.414700 -1.517100
-33.658322 15.943011 -1.889334 -166.041654 78.181775 -147.341387 0.000000 0.000000 0.000000 -40.982951 -41.743935 31.072588 0.168120 -2.641627 -7.282506 12.781360 2.816774 -70.018066 5.690695 -14.120520 -43.725078 0.000000 0.000000 0.000000 19.934416 19.578811 -25.065422 -0.459617 -4.345392 12.051087 0.342630 -16.901501 -20.447528 -0.279386 3.399148 -9.392144 -3.953427 -0.334111 8.212751 4.700692 -0.133158 -9.323961 7.549496 0.873643 -15.031079 4.920737 5.349733 -23.102164 -2.860452 8.749012 37.992923 -0.095257 4.199788 18.627214 0.000000 0.000000 0.000000 0.515222 9.938018 -27.701105 21.630913 -32.556045 6.386630 29.633919 23.590425 -31.050893 0.000000 0.000000 0.000000 -7.125000 0.000000 0.000000 -2.399506 64.673665 1.142828 0.000000 0.000000 0.000000 -23.422352 20.438451 35.723995 -17.568290 -27.600834 -4.347435 -22.755117 -10.134995 22.825778 0.000000 0.000000 0.000000 7.125000 0.000000 0.000000 6.665458 54.389442 -1.542884
-33.678844 15.942221 -1.911467 -166.387309 78.193451 -147.706775 0.000000 0.000000 0.000000 -41.124501 -41.793070 31.041476 0.169139 -2.649455 -7.304212 12.799119 2.951649 -70.089532 5.779691 -14.210140 -44.088657 0.000000 0.000000 0.000000 19.699331 19.548423 -25.312543 -0.485434 -4.464184 12.386973 0.323160 -16.822603 -20.539055 -0.285371 3.434996 -9.492289 -3.976054 -0.343123 8.233602 4.661884 -0.158416 -9.302222 7.522692 0.858185 -15.012957 4.592973 5.098566 -23.183628 -2.529104 8.354124 38.067546 0.027185 4.043076 18.621229 0.000000 0.000000 0.000000 0.358444 9.899736 -27.395409 21.447726 -32.345889 6.288360 29.708838 23.933349 -31.014486 0.000000 0.000000 0.000000 -7.125000 0.000000 0.000000 -2.283312 64.656531 1.086557 0.000000 0.000000 0.000000 -23.339704 20.466702 35.918890 -17.615781 -27.662367 -4.369470 -22.630734 -10.302791 22.824956 0.000000 0.000000 0.000000 7.125000 0.000000 0.000000 6.794117 54.364184 -1.568669
-33.699367 15.941432 -1.933601 -166.732963 78.205126 -148.072162 0.000000 0.000000 0.000000 -41.266052 -41.842205 31.010363 0.170159 -2.657282 -7.325919 12.816879 3.086523 -70.160998 5.868686 -14.299761 -44.452235 0.000000 0.000000 0.000000 19.464247 19.518034 -25.559665 -0.511252 -4.582976 12.722860 0.303691 -16.743704 -20.630583 -0.291357 3.470844 -9.592433 -3.998681 -0.352134 8.254453 4.623076 -0.183674 -9.280483 7.495888 0.842728 -14.994836 4.265210 4.847400 -23.265092 -2.197756 7.959236 38.142170 0.149628 3.886364 18.615243 0.000000 0.000000 0.000000 0.201667 9.861455 -27.089714 21.264539 -32.135734 6.190091 29.783758 24.276274 -30.978078 0.000000 0.000000 0.000000 -7.125000 0.000000 0.000000 -2.167119 64.639396 1.030285 0.000000 0.000000 0.000000 -23.257056 20.494953 36.113785 -17.663271 -27.723901 -4.391505 -22.506351 -10.470586 22.824133 0.000000 0.000000 0.000000 7.125000 0.000000 0.000000 6.922775 54.338926 -1.594453
-33.719163 15.938182 -1.955135 -167.081773 78.235449 -148.460583 0.000000 0.000000 0.000000 -41.448021 -41.842338 31.037718 0.172850 -2.677920 -7.383216 12.806210 3.210070 -70.148155 5.886057 -14.316936 -44.522596 0.000000 0.000000 0.000000 19.228594 19.518851 -25.772962 -0.538520 -4.698834 13.052089 0.271474 -16.646694 -20.832734 -0.304189 3.544177 -9.797774 -4.070404 -0.354235 8.301461 4.588875 -0.208459 -9.245681 7.503319 0.832603 -14.978734 3.995472 4.608318 -23.368990 -1.909729 7.575612 38.209725 0.246828 3.735710 18.630208 0.000000 0.000000 0.000000 0.246194 10.110364 -27.377744 21.407701 -32.300234 6.266812 29.985739 24.258490 -31.304684 0.000000 0.000000 0.000000 -7.125000 0.000000 0.000000 -2.083645 65.041343 1.008374 0.000000 0.000000 0.000000 -23.185420 20.482091 36.280094 -17.713475 -27.788653 -4.414929 -22.346440 -10.503904 22.814855 0.000000 0.000000 0.000000 7.125000 0.000000 0.000000 7.084532 54.298018 -1.624623
-33.738929 15.934827 -1.976644 -167.430716 78.266561 -148.849978 0.000000 0.000000 0.000000 -41.631702 -41.840398 31.067548 0.175613 -2.699100 -7.442020 12.794337 3.333137 -70.131744 5.900396 -14.331045 -44.580545 0.000000 0.000000 0.000000 18.992918 19.520989 -25.984827 -0.565850 -4.814567 13.381036 0.238717 -16.548918 -21.039568 -0.317312 3.619096 -10.007567 -4.144205 -0.356044 8.349577 4.554868 -0.233224 -9.210326 7.512199 0.822703 -14.962717 3.728190 4.369747 -23.473837 -1.623537 7.192465 38.276981 0.342960 3.585313 18.646060 0.000000 0.000000 0.000000 0.299243 10.371431 -27.690905 21.564676 -32.480593 6.350939 30.193099 24.225437 -31.646655 0.000000 0.000000 0.000000 -7.125000 0.000000 0.000000 -2.001556 65.461028 0.987918 0.000000 0.000000 0.000000 -23.114250 20.467488 36.445192 -17.763794 -27.853542 -4.438411 -22.185025 -10.531530 22.805219 0.000000 0.000000 0.000000 7.125000 0.000000 0.000000 7.247690 54.256447 -1.654979
-33.758695 15.931472 -1.998153 -167.779659 78.297673 -149.239374 0.000000 0.000000 0.000000 -41.815382 -41.838458 31.097377 0.178376 -2.720280 -7.500824 12.782464 3.456205 -70.115333 5.914735 -14.345154 -44.638493 0.000000 0.000000 0.000000 18.757241 19.523126 -26.196693 -0.593180 -4.930300 13.709983 0.205960 -16.451141 -21.246401 -0.330434 3.694015 -10.217361 -4.218006 -0.357853 8.397692 4.520862 -0.257989 -9.174971 7.521079 0.812804 -14.946701 3.460908 4.131176 -23.578684 -1.337344 6.809319 38.344238 0.439092 3.434915 18.661913 0.000000 0.000000 0.000000 0.352291 10.632497 -28.004066 21.721651 -32.660952 6.435067 30.400459 24.192384 -31.988626 0.000000 0.000000 0.000000 -7.125000 0.000000 0.000000 -1.919467 65.880714 0.967461 0.000000 0.000000 0.000000 -23.043080 20.452886 36.610291 -17.814113 -27.918430 -4.461893 -22.023610 -10.559156 22.795583 0.000000 0.000000 0.000000 7.125000 0.000000 0.000000 7.410849 54.214876 -1.685335
